HIERARCHY
ROOT Hips
{
    OFFSET 0.000000 0.000000 0.000000
    CHANNELS 6 Xposition Yposition Zposition Zrotation Xrotation Yrotation
    JOINT Spine
    {
        OFFSET -0.000000 7.246840 0.000000
        CHANNELS 3 Zrotation Xrotation Yrotation
        JOINT Spine1
        {
            OFFSET -0.000000 20.289354 0.000000
            CHANNELS 3 Zrotation Xrotation Yrotation
            JOINT Neck
            {
                OFFSET -0.000000 20.206032 1.836912
                CHANNELS 3 Zrotation Xrotation Yrotation
                JOINT Head
                {
                    OFFSET -0.000000 12.372654 -1.767522
                    CHANNELS 3 Zrotation Xrotation Yrotation
                    End Site
                    {
                        OFFSET -0.000000 22.094025 0.000000
                    }
                }
            }
            JOINT LeftShoulder
            {
                OFFSET 3.465871 17.201674 -0.568930
                CHANNELS 3 Zrotation Xrotation Yrotation
                JOINT LeftArm
                {
                    OFFSET 14.070313 0.000000 0.000000
                    CHANNELS 3 Zrotation Xrotation Yrotation
                    JOINT LeftForeArm
                    {
                        OFFSET 26.549477 0.000000 0.000000
                        CHANNELS 3 Zrotation Xrotation Yrotation
                        JOINT LeftHand
                        {
                            OFFSET 18.880413 0.000000 0.000000
                            CHANNELS 3 Zrotation Xrotation Yrotation
                            End Site
                            {
                                OFFSET 13.256415 0.000000 0.000000
                            }
                        }
                    }
                }
            }
            JOINT RightShoulder
            {
                OFFSET -3.526370 17.201674 -0.568930
                CHANNELS 3 Zrotation Xrotation Yrotation
                JOINT RightArm
                {
                    OFFSET -14.070313 0.000000 0.000000
                    CHANNELS 3 Zrotation Xrotation Yrotation
                    JOINT RightForeArm
                    {
                        OFFSET -26.549477 0.000000 0.000000
                        CHANNELS 3 Zrotation Xrotation Yrotation
                        JOINT RightHand
                        {
                            OFFSET -18.880413 0.000000 0.000000
                            CHANNELS 3 Zrotation Xrotation Yrotation
                            End Site
                            {
                                OFFSET -13.256415 0.000000 0.000000
                            }
                        }
                    }
                }
            }
        }
    }
    JOINT LeftUpLeg
    {
        OFFSET 8.837609 0.000000 0.000000
        CHANNELS 3 Zrotation Xrotation Yrotation
        JOINT LeftLeg
        {
            OFFSET -0.000000 -41.345005 0.000000
            CHANNELS 3 Zrotation Xrotation Yrotation
            JOINT LeftFoot
            {
                OFFSET -0.000000 -35.500874 0.000000
                CHANNELS 3 Zrotation Xrotation Yrotation
                JOINT LeftToeBase
                {
                    OFFSET -0.000000 -5.744446 13.256415
                    CHANNELS 3 Zrotation Xrotation Yrotation
                    End Site
                    {
                        OFFSET -0.000000 0.000000 3.535044
                    }
                }
            }
        }
    }
    JOINT RightUpLeg
    {
        OFFSET -8.837609 0.000000 0.000000
        CHANNELS 3 Zrotation Xrotation Yrotation
        JOINT RightLeg
        {
            OFFSET -0.000000 -41.345005 0.000000
            CHANNELS 3 Zrotation Xrotation Yrotation
            JOINT RightFoot
            {
                OFFSET -0.000000 -35.500874 0.000000
                CHANNELS 3 Zrotation Xrotation Yrotation
                JOINT RightToeBase
                {
                    OFFSET -0.000000 -5.744446 13.256415
                    CHANNELS 3 Zrotation Xrotation Yrotation
                    End Site
                    {
                        OFFSET -0.000000 0.000000 3.535044
                    }
                }
            }
        }
    }
}
MOTION
Frames:    4
Frame Time:    0.010000
4.328886    82.635185    -75.945419    2.830878    1.632501    -0.963620    -3.652546    -13.474543    -0.787576    0.463408    4.915539    -0.375970    4.887870    33.566147    -1.938624    -3.686172    -11.446779    -2.056279    19.770664    1.742899    6.600509    -37.659180    6.244036    -9.423913    9.420577    -7.528452    -12.084485    -34.308743    -5.904573    -2.059231    -15.186681    4.016655    9.027143    20.575813    3.886103    8.836963    -3.036197    -5.713039    0.510483    8.356536    -4.552791    15.662443    -3.938640    6.933033    2.290987    -2.503700    -6.528294    -3.258175    3.287659    1.009033    1.534429    1.166494    -1.799464    -1.650933    -6.796787    4.472729    1.355474    6.682521    -3.976135    4.297859    -1.493817    -5.194094    -10.171543    -0.343062    1.443099    0.605852    
4.378007    82.635582    -75.953743    2.851494    1.657691    -0.937137    -3.638202    -13.445863    -0.829697    0.607012    4.864653    -0.426448    4.750155    33.546452    -1.885767    -3.780840    -11.440808    -2.048578    19.757376    1.739299    6.649067    -37.409283    6.614995    -9.437781    9.306911    -7.980029    -12.027154    -33.922050    -6.293284    -2.351792    -15.184186    3.983552    9.093658    20.748974    3.965074    8.775129    -2.881318    -5.404150    0.352807    7.206554    -4.390383    15.913560    -3.988479    6.898680    2.294061    -2.519980    -6.515365    -3.186383    3.297040    1.003739    1.465084    1.180731    -1.732936    -1.670393    -6.861545    4.482426    1.398513    6.711957    -4.051445    4.274006    -1.501566    -5.176871    -10.228300    -0.328066    1.513566    0.578942    
4.406013    82.638809    -75.948128    2.841528    1.708488    -0.813343    -3.650912    -13.478710    -0.924746    0.772802    4.844830    -0.525865    4.643782    33.574707    -1.846349    -3.880089    -11.492098    -2.050080    19.733721    1.841680    6.708908    -37.332993    6.386490    -9.547125    9.467818    -7.997933    -12.081573    -34.089394    -6.318281    -2.246042    -15.160729    3.943440    9.168781    20.910685    3.983467    8.707670    -2.877992    -5.403650    0.281796    7.849904    -4.302109    15.906335    -3.983814    6.848172    2.320091    -2.536357    -6.520876    -3.240864    3.291642    1.043859    1.383974    1.197816    -1.800001    -1.695265    -6.852315    4.516039    1.291515    6.705570    -4.154885    4.256720    -1.503738    -5.111750    -10.272574    -0.350737    1.522948    0.618888    
4.443676    82.644859    -75.958252    2.824634    1.771507    -0.753992    -3.609136    -13.495865    -0.979319    0.901591    4.798984    -0.589969    4.587023    33.658199    -1.857885    -4.023852    -11.643495    -2.107472    19.735054    1.828229    6.754842    -37.231800    6.285969    -9.575815    9.440299    -8.151165    -12.205889    -33.954441    -6.494226    -2.158100    -15.155461    3.902435    9.249806    21.077383    4.050954    8.618023    -2.892096    -5.403640    0.219407    8.139242    -4.262981    15.908301    -3.985351    6.779857    2.349225    -2.521847    -6.540795    -3.373481    3.238317    1.085807    1.358033    1.158859    -1.820368    -1.640339    -6.842249    4.498310    1.181329    6.684412    -4.236818    4.261271    -1.469747    -5.011869    -10.247751    -0.375724    1.457969    0.663429    
